<svg xmlns="http://www.w3.org/2000/svg" viewBox="86.58 160.79 290.8 147.8"><defs><radialGradient id="A" cx="129.33" cy="196.76" r="101.61" gradientTransform="matrix(1.5033 0 0 1.3183 39.368 -18.774)" gradientUnits="userSpaceOnUse"><stop stop-color="rgba(0, 0, 255, 1)" offset="0"/><stop stop-color="rgba(0, 0, 153, 1)" offset="1"/></radialGradient></defs><path d="M93.317 160.79v39.693h-6.471V160.79zm64.371 15.667v24.026h-6.218v-24.026h-14.236v24.026h-6.186v-29.479h6.186v5.204a4.93 4.93 0 0 1 .569-2.035 5.55 5.55 0 0 1 1.341-1.661 6.36 6.36 0 0 1 1.941-1.107c.737-.267 1.526-.401 2.367-.401h8.018c.82 0 1.599.134 2.335.401s1.389.637 1.957 1.107a5.67 5.67 0 0 1 1.373 1.661 4.47 4.47 0 0 1 .553 2.035c.042-.72.226-1.398.552-2.035a5.35 5.35 0 0 1 1.326-1.661c.557-.47 1.204-.839 1.941-1.107s1.525-.401 2.367-.401h8.017c.863 0 1.673.143 2.431.429s1.415.673 1.972 1.162 1 1.066 1.326 1.73.489 1.375.489 2.132v24.026h-6.218v-24.026zm57.521 11.155c0-.757.163-1.463.489-2.118a5.74 5.74 0 0 1 1.325-1.73c.558-.498 1.216-.89 1.973-1.176s1.557-.429 2.399-.429h16.034v-5.702h-20.295v-5.453h20.295c.863 0 1.673.143 2.431.429s1.415.673 1.972 1.162 1 1.066 1.326 1.73.489 1.375.489 2.132v24.026h-6.218v-4.982c-.063.683-.273 1.328-.631 1.937s-.815 1.14-1.373 1.592a6.54 6.54 0 0 1-1.91 1.066c-.715.258-1.473.387-2.272.387h-9.848c-.842 0-1.641-.143-2.399-.429s-1.415-.673-1.973-1.162-.999-1.066-1.325-1.73-.489-1.375-.489-2.132zm6.186 7.418h16.034v-7.418h-16.034zm59.354-18.573c0-.757.163-1.467.489-2.132s.768-1.241 1.325-1.73 1.216-.876 1.973-1.162 1.557-.429 2.399-.429h11.142c.821 0 1.599.134 2.336.401a6.36 6.36 0 0 1 1.941 1.107c.557.471 1.01 1.025 1.357 1.661a4.47 4.47 0 0 1 .552 2.035v-5.204h6.218v35.929c0 .756-.163 1.467-.489 2.131s-.768 1.241-1.326 1.73-1.215.877-1.972 1.163-1.568.429-2.431.429h-19.632v-5.453h19.632v-7.585h-17.328c-.842 0-1.641-.143-2.399-.429s-1.415-.673-1.973-1.162-.999-1.066-1.325-1.73-.489-1.375-.489-2.132zm23.514 17.438v-17.438h-17.328v17.438zm71.762-5.37h-22.253v6.505h22.253v5.453h-22.253a6.73 6.73 0 0 1-2.398-.429c-.758-.286-1.415-.673-1.973-1.162s-1-1.066-1.326-1.73-.489-1.375-.489-2.132v-18.573c0-.757.163-1.467.489-2.132s.768-1.241 1.326-1.73 1.215-.876 1.973-1.162a6.73 6.73 0 0 1 2.398-.429h16.035c.862 0 1.673.143 2.43.429s1.415.673 1.973 1.162.999 1.066 1.326 1.73.489 1.375.489 2.132zm-22.253-12.068v6.615h16.035v-6.615z" fill="red"/><path d="M108.52 249.12c2.869 0 5.076-.677 6.621-2.032s2.317-3.291 2.317-5.807v-11.349c0-1.231-.201-2.331-.602-3.299s-.988-1.79-1.76-2.467-1.711-1.192-2.814-1.544-2.358-.528-3.762-.528H92.75v27.026zm-21.94 5.41v-37.847h21.94c2.307 0 4.389.313 6.244.937s3.441 1.513 4.756 2.666 2.327 2.547 3.039 4.183 1.069 3.458 1.069 5.463v11.349c0 2.006-.357 3.827-1.069 5.464s-1.725 3.03-3.039 4.183-2.9 2.041-4.756 2.666-3.937.936-6.244.936zm74.001-5.199a4.55 4.55 0 0 1-.467 2.032 5.24 5.24 0 0 1-1.264 1.65c-.532.466-1.154.836-1.866 1.108s-1.48.409-2.302.409h-15.921c-.802 0-1.565-.136-2.287-.409s-1.349-.642-1.881-1.108a5.24 5.24 0 0 1-1.264-1.65c-.311-.633-.466-1.311-.466-2.032v-17.709c0-.722.155-1.399.466-2.033s.732-1.183 1.264-1.649 1.159-.836 1.881-1.109 1.485-.409 2.287-.409h15.921a6.4 6.4 0 0 1 2.302.409c.712.273 1.334.643 1.866 1.109s.953 1.016 1.264 1.649.467 1.311.467 2.033zm-21.82-17.709v17.709h15.921v-17.709zm57.094 0v22.908h-5.929v-22.908h-13.573v22.908h-5.899v-28.108h5.899v4.962a4.69 4.69 0 0 1 .542-1.94 5.28 5.28 0 0 1 1.279-1.583c.532-.449 1.148-.801 1.851-1.056a6.56 6.56 0 0 1 2.257-.383h7.644a6.47 6.47 0 0 1 2.227.383c.702.255 1.324.607 1.866 1.056a5.38 5.38 0 0 1 1.309 1.583 4.26 4.26 0 0 1 .527 1.94c.04-.686.216-1.333.527-1.94a5.08 5.08 0 0 1 1.264-1.583c.531-.449 1.148-.801 1.85-1.056s1.455-.383 2.258-.383h7.644a6.52 6.52 0 0 1 2.317.409c.722.273 1.349.643 1.881 1.109s.953 1.016 1.264 1.649.467 1.311.467 2.033v22.908h-5.929v-22.908zm35.551-5.2v28.108h-5.929v-28.108zm-6.23-10.821h6.531v5.411h-6.531zm44.744 38.929h-5.929v-22.908h-16.522v22.908h-5.899v-28.108h5.899v4.962c.04-.686.22-1.333.541-1.94s.748-1.135 1.279-1.583 1.149-.801 1.851-1.056 1.455-.383 2.258-.383h10.593c.823 0 1.595.137 2.317.409s1.35.643 1.881 1.109.953 1.016 1.264 1.649.467 1.311.467 2.033zm9.855-12.272c0-.722.156-1.395.467-2.019a5.45 5.45 0 0 1 1.264-1.65c.532-.475 1.159-.849 1.881-1.121s1.485-.41 2.287-.41h15.289v-5.436h-19.352v-5.2h19.352a6.52 6.52 0 0 1 2.317.409c.722.273 1.349.643 1.881 1.109s.953 1.016 1.264 1.649.466 1.311.466 2.033v22.908h-5.928v-4.75a4.42 4.42 0 0 1-.602 1.847c-.341.581-.778 1.087-1.309 1.518a6.22 6.22 0 0 1-1.821 1.016 6.34 6.34 0 0 1-2.167.369h-9.39c-.802 0-1.565-.136-2.287-.409s-1.349-.642-1.881-1.108a5.24 5.24 0 0 1-1.264-1.65 4.55 4.55 0 0 1-.467-2.032zm5.899 7.073h15.289v-7.073h-15.289zm59.429 5.199h-5.928v-22.908h-16.523v22.908h-5.899v-28.108h5.899v4.962a4.69 4.69 0 0 1 .542-1.94 5.28 5.28 0 0 1 1.279-1.583c.532-.449 1.149-.801 1.851-1.056a6.56 6.56 0 0 1 2.257-.383h10.594a6.52 6.52 0 0 1 2.317.409c.722.273 1.349.643 1.881 1.109s.953 1.016 1.264 1.649.466 1.311.466 2.033zm7.99-28.108h7.825v-8.657h5.928v8.657h10.534v5.2h-10.534v17.709h10.534v5.199h-10.534c-.802 0-1.564-.136-2.287-.409a6.27 6.27 0 0 1-1.896-1.108 5.14 5.14 0 0 1-1.279-1.65c-.311-.633-.466-1.311-.466-2.032v-17.709h-7.825z" fill="#0f0"/><path d="M86.846 274.57c0-.775.169-1.509.505-2.201a5.58 5.58 0 0 1 1.389-1.799c.589-.507 1.278-.913 2.067-1.218s1.626-.457 2.51-.457h24.556c.884 0 1.72.153 2.509.457s1.479.711 2.068 1.218a5.58 5.58 0 0 1 1.389 1.799c.336.692.505 1.426.505 2.201v5.121h-6.471v-5.121H93.317v28.344h24.556v-5.093h6.471v5.093c0 .775-.169 1.509-.505 2.201a5.73 5.73 0 0 1-1.389 1.813c-.589.517-1.278.923-2.068 1.218s-1.625.443-2.509.443H93.317c-.884 0-1.72-.148-2.51-.443s-1.478-.701-2.067-1.218a5.73 5.73 0 0 1-1.389-1.813c-.336-.692-.505-1.426-.505-2.201zm106.34 28.566c0 .756-.163 1.467-.489 2.131s-.768 1.241-1.326 1.73a6.41 6.41 0 0 1-1.957 1.163c-.747.286-1.552.429-2.414.429h-16.698a6.73 6.73 0 0 1-2.398-.429c-.758-.286-1.415-.674-1.973-1.163s-1-1.066-1.326-1.73-.489-1.375-.489-2.131v-18.574c0-.756.163-1.467.489-2.131s.768-1.241 1.326-1.73 1.215-.877 1.973-1.163a6.73 6.73 0 0 1 2.398-.429H187c.862 0 1.667.143 2.414.429a6.41 6.41 0 0 1 1.957 1.163c.558.489 1 1.066 1.326 1.73s.489 1.375.489 2.131zm-22.884-18.574v18.574H187v-18.574zm69.486-16.802v40.829h-6.187V267.76zm69.469 35.376c0 .756-.163 1.467-.489 2.131s-.768 1.241-1.325 1.73-1.21.877-1.957 1.163-1.552.429-2.415.429h-16.697c-.842 0-1.641-.143-2.399-.429s-1.415-.674-1.973-1.163-.999-1.066-1.325-1.73-.49-1.375-.49-2.131v-18.574c0-.756.164-1.467.49-2.131s.768-1.241 1.325-1.73 1.216-.877 1.973-1.163 1.557-.429 2.399-.429h16.697c.863 0 1.668.143 2.415.429s1.399.674 1.957 1.163.999 1.066 1.325 1.73.489 1.375.489 2.131zm-22.883-18.574v18.574h16.697v-18.574zm69.485 0v24.027h-6.187v-29.48h6.187v5.204a4.91 4.91 0 0 1 .568-2.034 5.54 5.54 0 0 1 1.342-1.661c.557-.471 1.204-.84 1.941-1.107s1.525-.402 2.367-.402h6.597c.862 0 1.667.143 2.414.429s1.405.674 1.973 1.163 1.015 1.066 1.342 1.73.489 1.375.489 2.131v4.983h-6.218v-4.983z" fill="url(#A)"/></svg>
